<svg xmlns="http://www.w3.org/2000/svg" viewBox="0 0 240 240">
  <g transform="translate(20,60.5) scale(1.05)" fill="#FF8F60">
    <path d="m35.29,88.58h39.11c2.79,0,5.48,1.16,7.41,3.18l9.67,10.19c6.64,6.99,15.96,11,25.6,11h36.88c19.46,0,35.28-15.84,35.28-35.29v-18.01c0-19.46-15.83-35.29-35.28-35.29h-39.11c-2.79,0-5.49-1.15-7.41-3.18l-9.67-10.19c-6.63-6.99-15.96-11-25.6-11h-36.87C15.84,0,0,15.84,0,35.29v18.01c0,19.46,15.84,35.28,35.29,35.28Zm-10.21-53.29c0-5.64,4.57-10.21,10.21-10.21h68.36c1.18,0,2.31.3,3.32.85,1,.54,1.87,1.34,2.51,2.33l.13.36c4.23,11.93,15.23,20.37,27.88,20.8.4.01.8.02,1.2.02h15.27c5.64,0,10.21,4.57,10.21,10.21v18.01c0,5.64-4.57,10.21-10.21,10.21h-68.36c-1.18,0-2.32-.3-3.32-.84-1.01-.55-1.87-1.35-2.51-2.34l-.13-.36c-4.22-11.93-15.22-20.37-27.87-20.8-.4-.01-.8-.02-1.21-.02h-15.27c-5.64,0-10.21-4.57-10.21-10.21v-18.01Z"/>
  </g>
</svg>
