<svg xmlns="http://www.w3.org/2000/svg" viewBox="0 0 879.1 112.96"><g fill="#F2F1EF"><path d="m258.99,95.84c-6.26-3.29-11.27-8.16-15.04-14.62-3.77-6.46-5.66-14.3-5.66-23.53s1.94-17.09,5.84-23.59c3.89-6.5,9.03-11.37,15.41-14.63,6.38-3.25,13.34-4.87,20.88-4.87,6.82,0,12.96,1.24,18.42,3.73,5.45,2.49,9.83,5.98,13.12,10.47,3.29,4.49,5.13,9.63,5.54,15.4h-15.89c-.48-3.13-1.69-5.9-3.61-8.3-1.93-2.41-4.42-4.27-7.46-5.6-3.05-1.33-6.46-1.99-10.23-1.99-5.14,0-9.71,1.16-13.72,3.49-4.01,2.33-7.18,5.7-9.51,10.11-2.33,4.41-3.49,9.67-3.49,15.77s1.16,11.42,3.49,15.95c2.33,4.53,5.5,8,9.51,10.41,4.01,2.41,8.5,3.61,13.48,3.61,3.77,0,7.38-.76,10.83-2.29,3.45-1.52,6.22-3.57,8.3-6.14,2.09-2.57,3.13-5.3,3.13-8.19,0-1.28-.38-2.33-1.14-3.13-.76-.8-1.79-1.21-3.07-1.21h-17.09v-12.15h22.27c2.49,0,4.79.6,6.92,1.81,2.12,1.2,3.85,2.85,5.17,4.93,1.32,2.09,1.99,4.45,1.99,7.1v31.42h-14.2v-13.36c-1.61,4.25-4.57,7.7-8.91,10.35-4.33,2.65-9.27,3.97-14.8,3.97-7.38,0-14.2-1.64-20.46-4.93Z"/><path d="m338.55,96.32c-4.65-2.97-8.21-6.86-10.65-11.68-2.45-4.82-3.67-9.95-3.67-15.41s1.14-10.65,3.43-15.35c2.29-4.69,5.66-8.48,10.11-11.37,4.45-2.89,9.85-4.33,16.19-4.33s11.86,1.38,16.31,4.15c4.45,2.77,7.74,6.38,9.87,10.83,2.13,4.45,3.19,9.21,3.19,14.26,0,1.68-.08,3.37-.24,5.05h-50.31v-9.75h35.87c-.24-4.01-1.69-7.26-4.33-9.75-2.65-2.49-6.1-3.73-10.35-3.73-3.37,0-6.22.72-8.55,2.16-2.33,1.45-4.09,3.63-5.3,6.56-1.2,2.93-1.81,6.64-1.81,11.13,0,3.85.68,7.24,2.05,10.17,1.36,2.93,3.31,5.2,5.84,6.8,2.53,1.61,5.52,2.41,8.97,2.41,3.77,0,6.86-.76,9.27-2.29,2.41-1.52,4.01-3.73,4.81-6.62h14.44c-.72,4.25-2.41,7.98-5.06,11.19-2.65,3.21-5.98,5.67-9.99,7.4-4.01,1.72-8.51,2.59-13.48,2.59-6.42,0-11.96-1.48-16.61-4.45Z"/><path d="m412.09,20.85v18.29h16.85v12.4h-16.85v26.48c0,3.05.76,5.38,2.29,6.98,1.52,1.61,3.69,2.41,6.5,2.41h8.06v12.4h-9.75c-4.41,0-8.27-.84-11.55-2.53-3.29-1.68-5.84-4.11-7.64-7.28-1.81-3.17-2.71-6.96-2.71-11.37v-27.08h-11.92v-12.4h11.92v-18.29h14.8Z"/><path d="m452.9,15.56h18.29l25.52,62.22,25.52-62.22h18.29v84.25h-14.92v-55.85l-22.87,55.85h-12.04l-22.99-55.85v55.85h-14.8V15.56Z"/><path d="m563.5,96.32c-4.65-2.97-8.21-6.86-10.65-11.68-2.45-4.82-3.67-9.95-3.67-15.41s1.14-10.65,3.43-15.35c2.29-4.69,5.66-8.48,10.11-11.37,4.45-2.89,9.85-4.33,16.19-4.33s11.86,1.38,16.31,4.15c4.45,2.77,7.74,6.38,9.87,10.83,2.13,4.45,3.19,9.21,3.19,14.26,0,1.68-.08,3.37-.24,5.05h-50.31v-9.75h35.87c-.24-4.01-1.69-7.26-4.33-9.75-2.65-2.49-6.1-3.73-10.35-3.73-3.37,0-6.22.72-8.55,2.16-2.33,1.45-4.09,3.63-5.3,6.56s-1.81,6.64-1.81,11.13c0,3.85.68,7.24,2.05,10.17,1.36,2.93,3.31,5.2,5.84,6.8,2.53,1.61,5.52,2.41,8.97,2.41,3.77,0,6.86-.76,9.27-2.29,2.41-1.52,4.01-3.73,4.81-6.62h14.44c-.72,4.25-2.41,7.98-5.06,11.19-2.65,3.21-5.98,5.67-9.99,7.4-4.01,1.72-8.51,2.59-13.48,2.59-6.42,0-11.96-1.48-16.61-4.45Z"/><path d="m626.12,15.56h15.89v70.53h39.36v13.72h-55.24V15.56Z"/><path d="m702.67,13.15v16.49h-15.89V13.15h15.89Zm-15.41,26h14.8v60.66h-14.8v-60.66Z"/><path d="m710.33,39.15h14.8v9.39c1.6-3.29,4.07-5.84,7.4-7.64,3.33-1.81,7.16-2.71,11.49-2.71s8.35,1,11.8,3.01c3.45,2.01,6.1,4.83,7.94,8.48,1.85,3.65,2.77,7.84,2.77,12.58v37.55h-14.68v-34.42c0-4.17-1.18-7.56-3.55-10.17-2.37-2.6-5.44-3.91-9.21-3.91-2.65,0-5.04.66-7.16,1.98-2.13,1.33-3.79,3.15-5,5.48-1.2,2.33-1.81,4.98-1.81,7.94v33.1h-14.8v-60.66Z"/><path d="m774.51,13.15h14.92v86.66h-14.92V13.15Zm12.28,50.55l25.76-24.55h18.78l-44.77,43.21.24-18.66Zm7.1,5.3l11.07-8.3,28.4,39.12h-17.81l-21.66-30.81Z"/><path d="m843.11,98.19c-3.69-1.73-6.62-4.17-8.79-7.34-2.17-3.17-3.37-6.88-3.61-11.14h13c.32,3.05,1.57,5.42,3.73,7.1,2.17,1.68,4.97,2.53,8.43,2.53,2.89,0,5.27-.64,7.16-1.93,1.88-1.28,2.83-2.93,2.83-4.93,0-1.84-.56-3.29-1.68-4.33-1.13-1.04-2.49-1.81-4.09-2.29-1.61-.48-3.97-.96-7.1-1.44-4.25-.72-7.75-1.54-10.47-2.47-2.73-.92-5.1-2.63-7.1-5.12-2.01-2.49-3.01-6.06-3.01-10.71,0-3.53.92-6.64,2.77-9.33,1.84-2.69,4.41-4.79,7.7-6.32,3.29-1.52,7.02-2.28,11.19-2.28,4.65,0,8.79.8,12.4,2.41,3.61,1.61,6.46,3.87,8.55,6.8,2.09,2.93,3.25,6.32,3.49,10.17h-13c-.4-2.73-1.68-4.85-3.85-6.38-2.17-1.52-4.61-2.29-7.34-2.29s-4.92.6-6.56,1.81c-1.65,1.2-2.47,2.85-2.47,4.93,0,1.77.52,3.13,1.56,4.09,1.04.96,2.39,1.65,4.03,2.05,1.64.4,3.91.8,6.8,1.2,4.49.56,8.14,1.3,10.95,2.23,2.81.93,5.25,2.71,7.34,5.36,2.09,2.65,3.13,6.46,3.13,11.43,0,3.77-.96,7.08-2.89,9.93s-4.65,5.04-8.18,6.56c-3.53,1.52-7.58,2.29-12.16,2.29-4.81,0-9.07-.86-12.76-2.59Z"/><path d="m35.29,88.58h39.11c2.79,0,5.48,1.16,7.41,3.18l9.67,10.19c6.64,6.99,15.96,11,25.6,11h36.88c19.46,0,35.28-15.84,35.28-35.29v-18.01c0-19.46-15.83-35.29-35.28-35.29h-39.11c-2.79,0-5.49-1.15-7.41-3.18l-9.67-10.19c-6.63-6.99-15.96-11-25.6-11h-36.87C15.84,0,0,15.84,0,35.29v18.01c0,19.46,15.84,35.28,35.29,35.28Zm-10.21-53.29c0-5.64,4.57-10.21,10.21-10.21h68.36c1.18,0,2.31.3,3.32.85,1,.54,1.87,1.34,2.51,2.33l.13.36c4.23,11.93,15.23,20.37,27.88,20.8.4.01.8.02,1.2.02h15.27c5.64,0,10.21,4.57,10.21,10.21v18.01c0,5.64-4.57,10.21-10.21,10.21h-68.36c-1.18,0-2.32-.3-3.32-.84-1.01-.55-1.87-1.35-2.51-2.34l-.13-.36c-4.22-11.93-15.22-20.37-27.87-20.8-.4-.01-.8-.02-1.21-.02h-15.27c-5.64,0-10.21-4.57-10.21-10.21v-18.01Z"/></g></svg>
